<?xml version="1.0" encoding="UTF-8"?><svg id="Ebene_2" xmlns="http://www.w3.org/2000/svg" viewBox="0 0 447.09 84.94"><defs><style>.cls-1{isolation:isolate;}</style></defs><path d="M206.75,67.88c1.1,3.3,4.59,5.69,9.26,5.69,6.24,0,8.99-4.13,10.09-9.45l1.28-6.24c-2.02,3.85-7.25,6.79-12.66,6.79-11.56,0-18.89-8.16-18.89-19.54,0-14.4,9.72-27.33,23.94-27.33,7.34,0,12.11,3.03,14.22,7.8l1.28-6.7h15.23l-9.08,45.68c-2.84,14.49-11.92,20.36-25.87,20.36-12.75,0-22.47-6.97-24.03-17.06h15.23ZM219.4,53.3c6.97,0,11.37-7.34,11.37-14.12,0-5.69-3.21-9.26-8.71-9.26-6.97,0-11.19,7.15-11.19,13.94,0,5.41,2.84,9.45,8.53,9.45h0Z"/><path d="M241.69,46.97l5.59-28.07h15.41l-5.6,28.16c-.92,4.49,1.01,8.16,5.78,8.16,4.49,0,7.25-3.39,8.16-8.07l5.59-28.25h15.41l-9.54,48.06h-15.13l1.28-6.79c-2.11,4.77-6.88,7.89-12.66,7.89-11.65,0-16.69-8.9-14.31-21.1h.02Z"/><path d="M295.26,18.9h15.41l-9.54,48.06h-15.41s9.54-48.06,9.54-48.06ZM299.02,0h15.59l-2.75,13.48h-15.59L299.02,0Z"/><path d="M326.26,17.8c6.79,0,11.92,2.66,14.49,7.34L345.79,0h15.41l-13.39,66.96h-15.23l1.1-5.69c-2.48,4.13-7.15,6.79-13.21,6.79-11.56,0-19.17-9.08-19.17-21.65,0-15.04,9.81-28.62,24.95-28.62h.01ZM325.62,55.32c7.34,0,11.74-7.7,11.74-14.86,0-5.23-3.12-9.91-8.81-9.91-7.25,0-11.83,7.43-11.83,14.58,0,5.96,3.21,10.18,8.9,10.18h0Z"/><path d="M398.72,45.78l-.09.46h-33.57v.46c0,5.14,2.93,9.91,9.36,9.91,4.49,0,7.43-2.48,8.71-5.14h14.4c-3.49,9.91-11.83,16.6-24.67,16.6-14.67,0-23.02-9.72-23.02-21.83,0-15.87,11.37-28.43,27.61-28.43s24.4,12.2,21.28,27.97h0ZM366.71,36.6h18.44c-.55-4.68-3.49-7.89-8.53-7.89s-8.25,3.39-9.91,7.89Z"/><path d="M386.15,51.28h14.03c.55,3.94,3.49,6.33,8.53,6.33,4.22,0,7.15-1.83,7.15-4.86,0-1.74-1.1-3.03-4.13-3.67l-9.63-2.02c-7.15-1.47-12.02-5.41-12.02-12.29,0-11.1,9.26-16.97,21.46-16.97,11.56,0,19.63,5.32,20.18,15.78h-13.57c-.64-3.49-3.3-5.32-7.25-5.32-3.67,0-6.33,1.56-6.33,4.22,0,1.74,1.1,2.48,3.58,2.93l10.46,2.02c7.8,1.47,11.92,5.78,11.92,11.92,0,12.75-10.73,18.71-23.02,18.71-11.65,0-20.36-6.14-21.37-16.78h.01Z"/><path d="M434.2,54.66h12.89l-2.46,12.31h-12.89l2.46-12.31Z"/><g class="cls-1"><path d="M4.49,70.35c1.56,6.33,7.34,10.92,15.59,10.92,9.72,0,15.04-6.33,17.06-16.51l2.02-10.09c-2.48,5.23-8.81,10.55-17.06,10.55-11.47,0-18.44-8.8-18.44-19.81,0-13.67,9.91-26.14,23.39-26.14,9.17,0,15.41,6.14,16.6,13.67l2.48-12.57h4.31l-9.08,45.4c-2.38,11.92-9.63,19.17-21.65,19.17-10.18,0-17.98-6.33-19.72-14.58h4.49ZM23.02,61.54c10.82,0,18.71-11.1,18.71-22.29,0-9.08-5.41-16.24-14.49-16.24-11.19,0-19.08,10.92-19.08,22.2,0,8.99,4.95,16.33,14.86,16.33Z"/></g><g class="cls-1"><path d="M47.42,47.05c0-14.4,10.46-27.79,24.58-27.79,12.29,0,19.17,9.45,19.17,20.91,0,14.4-10.36,27.88-24.58,27.88-12.57,0-19.17-10-19.17-21ZM86.68,40.45c0-9.26-5.23-17.34-14.86-17.34-11.37,0-20,11.83-20,23.66,0,9.45,5.14,17.43,14.95,17.43,11.74,0,19.9-12.2,19.9-23.75Z"/><path d="M92.64,47.05c0-14.4,10.46-27.79,24.58-27.79,12.29,0,19.17,9.45,19.17,20.91,0,14.4-10.36,27.88-24.58,27.88-12.57,0-19.17-10-19.17-21ZM131.9,40.45c0-9.26-5.23-17.34-14.86-17.34-11.37,0-20,11.83-20,23.66,0,9.45,5.14,17.43,14.95,17.43,11.74,0,19.9-12.2,19.9-23.75Z"/></g><g class="cls-1"><path d="M161.61,19.26c9.45,0,15.68,6.6,17.06,14.22L185.37,0h4.4l-13.39,66.96h-4.31l2.11-10.27c-3.21,6.05-9.45,11.37-18.07,11.37-11.56,0-18.44-9.54-18.44-20.91,0-14.22,10.18-27.88,23.94-27.88ZM156.84,64.2c11.37,0,19.9-11.83,19.9-23.48,0-9.36-5.5-17.61-15.04-17.61-11.37,0-19.63,12.02-19.63,23.76,0,9.36,5.04,17.33,14.77,17.33Z"/></g></svg>