<?xml version="1.0" encoding="UTF-8"?><svg id="Ebene_2" xmlns="http://www.w3.org/2000/svg" viewBox="0 0 448.1 99.61"><defs><style>.cls-1{letter-spacing:0em;}.cls-2{letter-spacing:-.08em;}.cls-3{font-family:Indivisible-LightItalic, Indivisible;font-size:91.72px;font-style:italic;font-weight:300;}.cls-4{letter-spacing:-.12em;}</style></defs><g id="Ebene_1-2"><path d="M207.76,78.88c1.1,3.3,4.59,5.69,9.26,5.69,6.24,0,8.99-4.13,10.09-9.45l1.28-6.24c-2.02,3.85-7.25,6.79-12.66,6.79-11.56,0-18.89-8.16-18.89-19.54,0-14.4,9.72-27.33,23.94-27.33,7.34,0,12.11,3.03,14.22,7.8l1.28-6.7h15.23l-9.08,45.68c-2.84,14.49-11.92,20.36-25.87,20.36-12.75,0-22.47-6.97-24.03-17.06h15.23ZM220.41,64.3c6.97,0,11.37-7.34,11.37-14.12,0-5.69-3.21-9.26-8.71-9.26-6.97,0-11.19,7.15-11.19,13.94,0,5.41,2.84,9.45,8.53,9.45Z"/><path d="M242.7,57.97l5.59-28.07h15.41l-5.6,28.16c-.92,4.49,1.01,8.16,5.78,8.16,4.49,0,7.25-3.39,8.16-8.07l5.59-28.25h15.41l-9.54,48.06h-15.13l1.28-6.79c-2.11,4.77-6.88,7.89-12.66,7.89-11.65,0-16.69-8.9-14.31-21.1Z"/><path d="M296.27,29.9h15.41l-9.54,48.06h-15.41l9.54-48.06ZM300.03,11.01h15.59l-2.75,13.48h-15.59l2.75-13.48Z"/><path d="M327.27,28.8c6.79,0,11.92,2.66,14.49,7.34l5.04-25.13h15.41l-13.39,66.96h-15.23l1.1-5.69c-2.48,4.13-7.15,6.79-13.21,6.79-11.56,0-19.17-9.08-19.17-21.65,0-15.04,9.81-28.62,24.95-28.62ZM326.63,66.32c7.34,0,11.74-7.7,11.74-14.86,0-5.23-3.12-9.91-8.81-9.91-7.25,0-11.83,7.43-11.83,14.58,0,5.96,3.21,10.18,8.9,10.18Z"/><path d="M399.73,56.78l-.09.46h-33.57v.46c0,5.14,2.93,9.91,9.36,9.91,4.49,0,7.43-2.48,8.71-5.14h14.4c-3.49,9.91-11.83,16.6-24.67,16.6-14.67,0-23.02-9.72-23.02-21.83,0-15.87,11.37-28.43,27.61-28.43s24.4,12.2,21.28,27.97ZM367.72,47.6h18.44c-.55-4.68-3.49-7.89-8.53-7.89s-8.25,3.39-9.91,7.89Z"/><path d="M387.16,62.28h14.03c.55,3.94,3.49,6.33,8.53,6.33,4.22,0,7.15-1.83,7.15-4.86,0-1.74-1.1-3.03-4.13-3.67l-9.63-2.02c-7.15-1.47-12.02-5.41-12.02-12.29,0-11.1,9.26-16.97,21.46-16.97,11.56,0,19.63,5.32,20.18,15.78h-13.57c-.64-3.49-3.3-5.32-7.25-5.32-3.67,0-6.33,1.56-6.33,4.22,0,1.74,1.1,2.48,3.58,2.93l10.46,2.02c7.8,1.47,11.92,5.78,11.92,11.92,0,12.75-10.73,18.71-23.02,18.71-11.65,0-20.36-6.14-21.37-16.78Z"/><path d="M435.21,65.66h12.89l-2.46,12.31h-12.89l2.46-12.31Z"/><text class="cls-3" transform="translate(0 77.96)"><tspan class="cls-4" x="0" y="0">g</tspan><tspan class="cls-2" x="44.03" y="0">oo</tspan><tspan class="cls-1" x="134.28" y="0">d</tspan></text></g></svg>